<?xml version="1.0" encoding="UTF-8"?>
<svg width="496px" height="496px" viewBox="0 0 496 496" version="1.1" xmlns="http://www.w3.org/2000/svg" xmlns:xlink="http://www.w3.org/1999/xlink">
    <title>Combined Shape</title>
    <g id="Page-1" stroke="none" stroke-width="1" fill="none" fill-rule="evenodd">
        <path d="M248,0 C384.966618,0 496,111.033382 496,248 C496,384.966618 384.966618,496 248,496 C111.033382,496 0,384.966618 0,248 C0,111.033382 111.033382,0 248,0 Z M196.732125,123.882127 C176.685722,124.834263 158.879141,129.426922 144.152315,144.101026 C129.425488,158.775131 124.889849,176.585686 123.88193,196.692569 C123.305736,206.846826 123.011877,226.938806 123.000353,247.229541 L123.000353,249.714451 C123.011877,270.005186 123.305736,290.097166 123.88193,300.251423 C124.833854,320.358306 129.425488,338.168861 144.152315,352.842966 C158.879141,367.51707 176.629727,372.109729 196.732125,373.117873 C217.450474,374.294042 279.549526,374.294042 300.267875,373.117873 C320.370273,372.165737 338.176854,367.573078 352.847685,352.842966 C367.518516,338.168861 372.110151,320.358306 373.11807,300.251423 C373.682505,290.304396 373.976012,270.834032 373.998589,250.982735 L374,248.5 C374,227.805032 373.706023,207.110064 373.11807,196.748577 C372.166146,176.641694 367.574512,158.831139 352.847685,144.157034 C338.176854,129.48293 320.370273,124.890271 300.267875,123.882127 C279.549526,122.705958 217.450474,122.705958 196.732125,123.882127 Z M248.527998,145.613243 C266.782543,145.613243 306.035416,144.157034 322.498104,150.653966 C333.473229,155.022593 341.928555,163.479806 346.352203,174.513388 C352.903681,191.035758 351.391801,230.241381 351.391801,248.5 C351.391801,266.758619 352.903681,306.02025 346.352203,322.486612 C341.984551,333.464186 333.529225,341.921399 322.498104,346.346034 C305.97942,352.898974 266.782543,351.386757 248.527998,351.386757 C230.273452,351.386757 191.02058,352.842966 174.557892,346.346034 C163.582766,341.977407 155.12744,333.520194 150.703793,322.486612 C144.152315,305.964242 145.664194,266.758619 145.664194,248.5 C145.664194,230.241381 144.20831,190.97975 150.703793,174.513388 C155.071445,163.535814 163.526771,155.078601 174.557892,150.653966 C191.076576,144.101026 230.273452,145.613243 248.527998,145.613243 Z M248.527998,184.14677 C212.914835,184.14677 184.189124,212.878891 184.189124,248.5 C184.189124,284.121109 212.914835,312.85323 248.527998,312.85323 C284.14116,312.85323 312.866871,284.121109 312.866871,248.5 C312.866871,212.878891 284.14116,184.14677 248.527998,184.14677 Z M248.527998,206.661999 C271.59816,206.661999 290.356665,225.42469 290.356665,248.5 C290.356665,271.57531 271.542164,290.338001 248.527998,290.338001 C225.513832,290.338001 206.699331,271.57531 206.699331,248.5 C206.699331,225.42469 225.457836,206.661999 248.527998,206.661999 Z M315.498661,166.50424 C307.211322,166.50424 300.491857,173.225204 300.491857,181.514393 C300.491857,189.803581 307.155326,196.524545 315.498661,196.524545 C323.786001,196.524545 330.505466,189.859589 330.505466,181.514393 C330.505466,173.225204 323.786001,166.50424 315.498661,166.50424 Z" id="Combined-Shape" fill="#ffffff"></path>
    </g>
</svg>