<?xml version="1.0" encoding="UTF-8"?>
<svg width="496px" height="496px" viewBox="0 0 496 496" version="1.1" xmlns="http://www.w3.org/2000/svg" xmlns:xlink="http://www.w3.org/1999/xlink">
    <title>Combined Shape</title>
    <g id="Page-1" stroke="none" stroke-width="1" fill="none" fill-rule="evenodd">
        <path d="M248,0 C384.966618,0 496,111.033382 496,248 C496,384.966618 384.966618,496 248,496 C111.033382,496 0,384.966618 0,248 C0,111.033382 111.033382,0 248,0 Z M183.378393,208.770173 L134.865179,208.770173 L134.865179,365 L183.378393,365 L183.378393,208.770173 Z M306.876071,204.852675 C283.272366,204.852675 267.45125,217.806536 260.974464,230.081363 L260.974464,230.081363 L260.295446,230.081363 L260.295446,208.770173 L213.767054,208.770173 L213.767054,365 L262.228036,365 L262.228036,287.64247 C262.228036,267.271479 266.093214,247.579522 291.316116,247.579522 C316.173393,247.579522 316.539018,270.823344 316.539018,288.948302 L316.539018,288.948302 L316.539018,365 L365,365 L365,279.180674 C365,237.185093 355.974286,204.852675 306.876071,204.852675 Z M159.09567,131 C143.57886,131 131,143.57914 131,159.096296 C131,174.609589 143.582723,187.458983 159.09567,187.458983 C174.603393,187.458983 187.191339,174.609589 187.191339,159.096296 C187.191339,143.57914 174.612479,131 159.09567,131 Z" id="Combined-Shape" fill="#ffffff"></path>
    </g>
</svg>