<?xml version="1.0" encoding="UTF-8"?>
<svg width="496px" height="496px" viewBox="0 0 496 496" version="1.1" xmlns="http://www.w3.org/2000/svg" xmlns:xlink="http://www.w3.org/1999/xlink">
    <title>Combined Shape</title>
    <g id="Page-1" stroke="none" stroke-width="1" fill="none" fill-rule="evenodd">
        <path d="M248,0 C384.966618,0 496,111.033382 496,248 C496,384.966618 384.966618,496 248,496 C111.033382,496 0,384.966618 0,248 C0,111.033382 111.033382,0 248,0 Z M305.293052,127 C271.446638,127 244.217946,154.413751 244.217946,188.067264 C244.217946,192.793934 244.785429,197.520021 245.730651,202.057554 C195.055903,199.410223 149.86391,175.210631 119.798968,138.154404 C114.504209,147.22947 111.479381,157.627909 111.479381,168.97145 C111.479381,190.146603 122.256896,208.863562 138.707491,219.829412 C128.68662,219.45172 119.231485,216.615835 111.101059,212.078302 L111.101059,212.078302 L111.101059,212.834267 C111.101059,242.517075 132.090352,267.094941 160.075106,272.767293 C154.97009,274.090086 149.48617,274.846632 144.002832,274.846632 C140.031617,274.846632 136.250146,274.468359 132.468092,273.901531 C140.220778,298.101706 162.722194,315.684427 189.572565,316.251837 C168.583854,332.70032 142.300384,342.342213 113.748729,342.342213 C108.643131,342.342213 103.916437,342.153077 99,341.586249 C126.039531,358.979251 158.184079,369 192.787136,369 C305.105055,369 366.557901,275.98087 366.557901,195.251546 C366.557901,192.604797 366.557901,189.957467 366.36874,187.310718 C378.28122,178.613344 388.681577,167.837213 397,155.737707 C386.033324,160.463795 374.120844,163.867672 361.830042,165.190464 C374.498584,157.628491 384.141715,145.717541 388.680413,131.537533 C376.956512,138.532677 363.720487,143.63762 349.917562,146.284369 C338.761144,134.373418 322.878031,127 305.293052,127 Z" id="Combined-Shape" fill="#ffffff"></path>
    </g>
</svg>