<?xml version="1.0" encoding="UTF-8"?>
<svg width="496px" height="496px" viewBox="0 0 496 496" version="1.1" xmlns="http://www.w3.org/2000/svg" xmlns:xlink="http://www.w3.org/1999/xlink">
    <title>Combined Shape</title>
    <g id="Page-1" stroke="none" stroke-width="1" fill="none" fill-rule="evenodd">
        <path d="M248,0 C384.966618,0 496,111.033382 496,248 C496,384.966618 384.966618,496 248,496 C111.033382,496 0,384.966618 0,248 C0,111.033382 111.033382,0 248,0 Z M248.68762,142.000793 L247.312384,142.000793 C238.733459,142.015853 152.38485,142.317061 130.010565,148.341229 C117.017245,151.8315 106.783837,162.114052 103.310583,175.170823 C97.3155292,197.653671 97.0157765,243.340763 97.0007888,247.853265 L97.0007888,248.575152 C97.0157765,253.087654 97.3155292,298.774745 103.310583,321.257594 C106.783837,334.314365 117.017245,344.169052 130.010565,347.658771 C152.38485,353.682939 238.733459,353.984147 247.312384,353.999207 L247.971834,353.999994 C247.990556,354 248,354 248,354 L248.028166,353.999994 L248.028166,353.999994 L248.687616,353.999207 C257.266541,353.984147 343.61515,353.682939 365.989435,347.658771 C378.982755,344.169052 389.216163,334.314365 392.689417,321.257594 C398.684471,298.774745 398.984224,253.087654 398.999211,248.575152 L398.999994,248.228946 C399,248.219146 399,248.214208 399,248.214208 L398.999994,248.19947 L398.999994,248.19947 L398.999211,247.853265 C398.984224,243.340763 398.684471,197.653671 392.689417,175.170823 C389.216163,162.114052 378.982755,151.830948 365.989435,148.341229 C343.615675,142.317061 257.266594,142.015853 248.68762,142.000793 Z M217.113423,203.383385 L296.044927,248.215312 L217.113423,293.045031 L217.113423,203.383385 Z" id="Combined-Shape" fill="#ffffff"></path>
    </g>
</svg>