<svg xmlns="http://www.w3.org/2000/svg" viewBox="0 0 199 199"><defs><style>.cls-1{fill:#26343c;}.cls-2{fill:#fff;}.cls-3{fill:#ffd600;}</style></defs><g id="Layer_2" data-name="Layer 2"><g id="Layer_1-2" data-name="Layer 1"><rect class="cls-1" width="199" height="199"/><path class="cls-2" d="M26.89,157.62a4.6,4.6,0,0,0,2.27-.5,1.57,1.57,0,0,0,.87-1.45,1.39,1.39,0,0,0-.28-.89,2.45,2.45,0,0,0-.81-.64,7.08,7.08,0,0,0-1.32-.53l-1.82-.55a21.15,21.15,0,0,1-2.29-.76,9.11,9.11,0,0,1-2.15-1.17,5.64,5.64,0,0,1-1.58-1.78,5.22,5.22,0,0,1-.61-2.63,5.8,5.8,0,0,1,2-4.62,8.8,8.8,0,0,1,5.88-1.75,17.2,17.2,0,0,1,4.34.5,14.43,14.43,0,0,1,3.39,1.32l-1,4.32a16.28,16.28,0,0,0-3.33-1.32,12.5,12.5,0,0,0-3.34-.49c-1.8,0-2.7.58-2.7,1.75a1.28,1.28,0,0,0,.33.87,2.76,2.76,0,0,0,.92.66,9.9,9.9,0,0,0,1.39.53c.53.16,1.1.34,1.72.51.79.22,1.57.49,2.34.79A8.63,8.63,0,0,1,33.2,151a5.37,5.37,0,0,1,1.49,1.75,5.27,5.27,0,0,1,.56,2.52,6.47,6.47,0,0,1-.56,2.71,6,6,0,0,1-1.64,2.11,7.62,7.62,0,0,1-2.64,1.39,12.06,12.06,0,0,1-3.62.49,18,18,0,0,1-4.4-.52,14.54,14.54,0,0,1-3.55-1.36l1-4.36a18.22,18.22,0,0,0,3.35,1.37A12.53,12.53,0,0,0,26.89,157.62Z"/><path class="cls-2" d="M54.17,146.26a11.41,11.41,0,0,0-2.5-1.09,9.67,9.67,0,0,0-2.72-.39,5.65,5.65,0,0,0-4.28,1.68,6.45,6.45,0,0,0-1.6,4.62,6.75,6.75,0,0,0,1.55,4.69A5.6,5.6,0,0,0,49,157.49a9.14,9.14,0,0,0,2.91-.47,10.46,10.46,0,0,0,2.54-1.22l1.09,4.66a11.81,11.81,0,0,1-3.09,1.07,16.67,16.67,0,0,1-3.68.41,13.52,13.52,0,0,1-4.49-.7,9.81,9.81,0,0,1-3.45-2.07,9.16,9.16,0,0,1-2.23-3.35,13.67,13.67,0,0,1,0-9.13,9.33,9.33,0,0,1,2.22-3.43,9.66,9.66,0,0,1,3.52-2.18,13.19,13.19,0,0,1,4.61-.76,15.11,15.11,0,0,1,3.64.43,15.51,15.51,0,0,1,3.19,1.12Z"/><path class="cls-2" d="M72.42,161.45v-8.19H64.14v8.19H58.89V140.81h5.25v8h8.28v-8h5.25v20.64Z"/><path class="cls-2" d="M87.22,161.45H82V140.81h8.28q4.13,0,6.24,1.77a5.9,5.9,0,0,1,2.12,4.77A6.14,6.14,0,0,1,97.53,151a6.47,6.47,0,0,1-3.15,2.32l5.28,8.16H93.75l-4.12-6.93-2.41.19Zm2.54-10.7a4.53,4.53,0,0,0,2.57-.86,2.66,2.66,0,0,0,.89-2.21c0-1.8-1.29-2.71-3.89-2.71H87.12v5.85Z"/><path class="cls-2" d="M111.65,153.62v7.83h-5.12v-7.86l-7.2-12.78h5.58l4.24,8.16,4.12-8.16h5.54Z"/><path class="cls-2" d="M133.08,161.45h-6.57l-7-20.64H125l4.89,15.55,4.85-15.55h5.48Z"/><path class="cls-2" d="M142.45,161.45V140.81h15.06V145h-9.94V149h8v4.23h-8v4h9.94v4.23Z"/><path class="cls-2" d="M166.36,161.45h-5.25V140.81h8.28c2.76,0,4.83.59,6.24,1.77a5.9,5.9,0,0,1,2.12,4.77,6.14,6.14,0,0,1-1.08,3.62,6.47,6.47,0,0,1-3.15,2.32l5.28,8.16h-5.91l-4.12-6.93-2.41.19Zm2.54-10.7a4.53,4.53,0,0,0,2.57-.86,2.66,2.66,0,0,0,.9-2.21c0-1.8-1.3-2.71-3.9-2.71h-2.21v5.85Z"/><path class="cls-2" d="M25.81,177v-4.33h-5.6V177h-1v-9.51h1v4.31h5.6v-4.31h1V177Z"/><path class="cls-2" d="M38,177H37l-1-2.72h-4.3l-1,2.72h-1l3.61-9.51h1.14Zm-4.14-8.53-1.83,4.94H35.7Z"/><path class="cls-2" d="M47.47,167.47h1v9.6H47.37L42,168.84V177H41v-9.51h1.1l5.38,8.16Z"/><path class="cls-2" d="M60,172.16a5.59,5.59,0,0,1-.35,2,4.09,4.09,0,0,1-1,1.51,4.32,4.32,0,0,1-1.61,1,6.55,6.55,0,0,1-2.17.33H52.4v-9.51H55a6.35,6.35,0,0,1,2.11.34,4.39,4.39,0,0,1,1.58.95,4.26,4.26,0,0,1,1,1.48A5.17,5.17,0,0,1,60,172.16Zm-1,.08A3.7,3.7,0,0,0,58,169.39a4.28,4.28,0,0,0-3.06-1H53.36v7.71H55a5.6,5.6,0,0,0,1.68-.23,3.58,3.58,0,0,0,1.3-.72,3.17,3.17,0,0,0,.84-1.2A4.36,4.36,0,0,0,59.07,172.24Z"/><path class="cls-2" d="M66.57,173.16V177h-1v-3.82l-3.32-5.69h1.1l2.73,4.73,2.69-4.73h1.08Z"/><path class="cls-2" d="M81,168.68l-3.12,8.24H76.79l-3.14-8.26L73.48,177h-1l.32-9.51h1.31l3.21,8.4,3.16-8.4h1.3l.3,9.51h-1Z"/><path class="cls-2" d="M93.15,177h-1l-1-2.72H86.85l-1,2.72h-1l3.6-9.51h1.15ZM89,168.45l-1.82,4.94h3.63Z"/><path class="cls-2" d="M102.6,167.47h1v9.6h-1.07l-5.41-8.23V177h-1v-9.51h1.09l5.39,8.16Z"/><path class="cls-2" d="M113.58,176.31a3,3,0,0,0,.92-.13,2.34,2.34,0,0,0,.7-.38,1.93,1.93,0,0,0,.47-.57,1.58,1.58,0,0,0,.17-.71,1.5,1.5,0,0,0-.17-.72,1.6,1.6,0,0,0-.48-.53,3.31,3.31,0,0,0-.75-.4c-.3-.12-.63-.23-1-.35s-.67-.21-1-.34a3.69,3.69,0,0,1-.89-.51,2.34,2.34,0,0,1-.64-.73,2.11,2.11,0,0,1-.25-1.08,2.43,2.43,0,0,1,.23-1,2.56,2.56,0,0,1,.64-.82,2.94,2.94,0,0,1,1-.53,3.71,3.71,0,0,1,1.22-.19,5.85,5.85,0,0,1,1.54.2,5.45,5.45,0,0,1,1.32.6l-.35.85a4.52,4.52,0,0,0-1.19-.57,4.08,4.08,0,0,0-1.3-.22,3.16,3.16,0,0,0-.93.13,2,2,0,0,0-.67.36,1.55,1.55,0,0,0-.39.53,1.42,1.42,0,0,0-.13.61,1.32,1.32,0,0,0,.17.68,1.52,1.52,0,0,0,.48.5,4.89,4.89,0,0,0,.76.39c.3.11.62.23,1,.34a9.35,9.35,0,0,1,1,.36,3.52,3.52,0,0,1,.88.52,2.64,2.64,0,0,1,.62.78,2.48,2.48,0,0,1,.23,1.1,2.71,2.71,0,0,1-.23,1.1,2.64,2.64,0,0,1-.66.86,2.77,2.77,0,0,1-1,.57,3.87,3.87,0,0,1-1.31.21,5.78,5.78,0,0,1-1.63-.23,6.12,6.12,0,0,1-1.42-.65l.34-.87a5.9,5.9,0,0,0,1.25.64A4.44,4.44,0,0,0,113.58,176.31Z"/><path class="cls-2" d="M120.14,177v-9.51h5.74v.9H121.1v3.42h4v.87h-4v3.42h4.78v.9Z"/><path class="cls-2" d="M130.34,177h-1v-9.51h2.55a3.84,3.84,0,0,1,2.61.75,2.68,2.68,0,0,1,.2,3.73,3,3,0,0,1-.7.57,3.85,3.85,0,0,1-.86.37l2.63,4.09h-1.12l-2.44-3.92-1.91.12Zm1.71-4.74a3,3,0,0,0,.91-.16,2.6,2.6,0,0,0,.76-.39,1.8,1.8,0,0,0,.52-.61,1.86,1.86,0,0,0,.19-.84,1.63,1.63,0,0,0-.68-1.42,3.29,3.29,0,0,0-1.93-.48h-1.48v4Z"/><path class="cls-2" d="M142.58,177h-1.14L138,167.47h1L142,176l3.08-8.51h1Z"/><path class="cls-2" d="M149,177v-9.51h1V177Z"/><path class="cls-2" d="M160.71,168.9a5.13,5.13,0,0,0-1.24-.56,4.9,4.9,0,0,0-1.41-.2,3.51,3.51,0,0,0-1.43.28,3.25,3.25,0,0,0-1.14.79,3.67,3.67,0,0,0-.75,1.28,5.1,5.1,0,0,0-.28,1.73,5.28,5.28,0,0,0,.26,1.7,3.7,3.7,0,0,0,.74,1.29,3.2,3.2,0,0,0,1.14.82,3.73,3.73,0,0,0,1.49.28,4.49,4.49,0,0,0,1.47-.24,4.58,4.58,0,0,0,1.19-.62l.18,1a4.37,4.37,0,0,1-1.27.57,5.87,5.87,0,0,1-1.59.21,5,5,0,0,1-1.88-.35,4.16,4.16,0,0,1-1.45-1,4.24,4.24,0,0,1-.94-1.55,6.24,6.24,0,0,1-.32-2,5.76,5.76,0,0,1,.34-2.05,4.7,4.7,0,0,1,1-1.57,4.06,4.06,0,0,1,1.45-1,4.61,4.61,0,0,1,1.84-.35A5.9,5.9,0,0,1,161,168Z"/><path class="cls-2" d="M164.42,177v-9.51h5.73v.9h-4.77v3.42h4v.87h-4v3.42h4.77v.9Z"/><path class="cls-2" d="M176.07,176.31a2.86,2.86,0,0,0,.91-.13,2.4,2.4,0,0,0,.71-.38,2.1,2.1,0,0,0,.47-.57,1.57,1.57,0,0,0,.16-.71,1.5,1.5,0,0,0-.16-.72,1.85,1.85,0,0,0-.48-.53,3.19,3.19,0,0,0-.76-.4c-.29-.12-.63-.23-1-.35s-.67-.21-1-.34a3.89,3.89,0,0,1-.89-.51,2.48,2.48,0,0,1-.64-.73,2.21,2.21,0,0,1-.24-1.08,2.43,2.43,0,0,1,.23-1A2.56,2.56,0,0,1,174,168a2.84,2.84,0,0,1,1-.53,3.67,3.67,0,0,1,1.22-.19,5.72,5.72,0,0,1,1.53.2,5.52,5.52,0,0,1,1.33.6l-.35.85a4.58,4.58,0,0,0-1.2-.57,4,4,0,0,0-1.3-.22,3.26,3.26,0,0,0-.93.13,2.08,2.08,0,0,0-.66.36,1.33,1.33,0,0,0-.39.53,1.42,1.42,0,0,0-.13.61,1.23,1.23,0,0,0,.17.68,1.52,1.52,0,0,0,.48.5,4.13,4.13,0,0,0,.76.39c.29.11.62.23,1,.34a8,8,0,0,1,1,.36,3.2,3.2,0,0,1,.88.52,2.52,2.52,0,0,1,.63.78,2.48,2.48,0,0,1,.23,1.1,2.71,2.71,0,0,1-.23,1.1,2.64,2.64,0,0,1-.66.86,2.86,2.86,0,0,1-1,.57,3.91,3.91,0,0,1-1.31.21,5.73,5.73,0,0,1-1.63-.23,6.2,6.2,0,0,1-1.43-.65l.35-.87a5.67,5.67,0,0,0,1.25.64A4.39,4.39,0,0,0,176.07,176.31Z"/><path class="cls-3" d="M50.23,80.67A42.65,42.65,0,0,1,70.64,33.43,18.15,18.15,0,0,1,75.16,23a50.27,50.27,0,0,0-30.11,66.4A91.88,91.88,0,0,1,50.23,80.67Z"/><path class="cls-3" d="M120.72,29.54h0c-.44.08-11.66,1.36-13.06,1.44a42.69,42.69,0,0,1,13.87,9.17,68.84,68.84,0,0,1,5.46-5.4A50.38,50.38,0,0,0,120.72,29.54Z"/><path class="cls-3" d="M134.11,66a42.6,42.6,0,0,1-66,40.07,46.74,46.74,0,0,1-5.75,5.34,50.24,50.24,0,0,0,78.46-51.6C140.25,60.49,134.69,65.57,134.11,66Z"/><path class="cls-2" d="M46.46,117.06c-1.28,0,0-1.28,0-1.28L87.23,69.91V80.1L133.1,36.78s3.83-3.82,2.55-6.37-3.82-7.65-28-5.1V24s12.74-6.37,26.76-6.37,28,15.29,28,15.29a13.13,13.13,0,0,1,1.28,5.09c0,2.55,3.82,6.38,3.82,6.38A9.77,9.77,0,0,0,173.88,47l6.37,6.37s-5.73,8.29-12.11,10.84l-5.09-5.1s-1.28-7.65-5.1-10.2-6.37-2.54-6.37-2.54-2.55-1.28-10.19,5.09-31.86,29.31-31.86,29.31V71.82L79,99.85V89.66S47.73,117.06,46.46,117.06Z"/><path class="cls-2" d="M42.64,113.23h0L60.47,86.47l-7.64,1.28L70.67,61,64.3,62.26,75.76,45.7V36.78c0-2.55,0-6.37,1.28-7.65s7.64-6.37,10.19-8.91,2.55,0,2.55,0l-5.73,9.55s1.27,11.47,10.19,6.37l5.1-8.92s1.27-2.55,1.27,0V38.69s0,3.82-5.1,6.37l-5.09,2.55s-3.82,2.55-5.1,5.1S67.48,78.19,67.48,78.19l-1.27,1.28,7.64-1.28L43.29,113.75C42.64,114.51,41.83,114.84,42.64,113.23Z"/></g></g></svg>